<svg xmlns="http://www.w3.org/2000/svg" viewBox="108 8 184 248" width="368" height="496">
  <defs>
    <style>text { font-synthesis: none; }</style>
  </defs>
  <circle cx="200" cy="100" r="82" fill="none" stroke="#085041" stroke-width="0.6" opacity="0.22"/>
  <circle cx="200" cy="100" r="62" fill="none" stroke="#085041" stroke-width="0.8" opacity="0.35"/>
  <circle cx="200" cy="100" r="42" fill="none" stroke="#085041" stroke-width="1.0" opacity="0.68"/>
  <g stroke="#085041" stroke-linecap="round" opacity="0.58">
    <line x1="200" y1="60"  x2="200" y2="67"  stroke-width="1.6"/>
    <line x1="221" y1="65.7" x2="217.5" y2="71.7" stroke-width="1.2"/>
    <line x1="237.3" y1="79.7" x2="232.8" y2="83.8" stroke-width="1.2"/>
    <line x1="242" y1="100" x2="235" y2="100" stroke-width="1.6"/>
    <line x1="237.3" y1="120.3" x2="232.8" y2="116.2" stroke-width="1.2"/>
    <line x1="221" y1="134.3" x2="217.5" y2="128.3" stroke-width="1.2"/>
    <line x1="200" y1="140" x2="200" y2="133" stroke-width="1.6"/>
    <line x1="179" y1="134.3" x2="182.5" y2="128.3" stroke-width="1.2"/>
    <line x1="162.7" y1="120.3" x2="167.2" y2="116.2" stroke-width="1.2"/>
    <line x1="158" y1="100" x2="165" y2="100" stroke-width="1.6"/>
    <line x1="162.7" y1="79.7" x2="167.2" y2="83.8" stroke-width="1.2"/>
    <line x1="179" y1="65.7" x2="182.5" y2="71.7" stroke-width="1.2"/>
  </g>
  <line x1="200" y1="100" x2="200" y2="67"  stroke="#085041" stroke-width="1.2" stroke-linecap="round" opacity="0.72"/>
  <line x1="200" y1="100" x2="233" y2="100" stroke="#085041" stroke-width="2.4" stroke-linecap="round" opacity="0.72"/>
  <circle cx="200" cy="100" r="2.8" fill="#085041" opacity="0.82"/>
  <path d="M 146 133 Q 200 163 254 133" fill="none" stroke="#085041" stroke-width="1.0" stroke-dasharray="3 5" stroke-linecap="round" opacity="0.38"/>
  <text x="200" y="206" text-anchor="middle"
        font-family="Georgia, 'Times New Roman', serif"
        font-weight="400" font-size="38" letter-spacing="0.14em"
        fill="#085041">SAMA</text>
  <line x1="148" y1="217" x2="252" y2="217"
        stroke="#085041" stroke-width="0.5" opacity="0.35"/>
  <text x="200" y="244" text-anchor="middle"
        font-family="Georgia, 'Times New Roman', serif"
        font-weight="400" font-size="18" letter-spacing="0.36em"
        fill="#085041" opacity="0.72">TIMER</text>
</svg>